<mxfile host="app.diagrams.net" agent="Mozilla/5.0 (Windows NT 10.0; Win64; x64) AppleWebKit/537.36 (KHTML, like Gecko) Chrome/131.0.0.0 Safari/537.36 Edg/131.0.0.0" version="25.0.3">
  <diagram name="Page-1" id="Wg5g0W48cy-bWxRvtOvI">
    <mxGraphModel grid="1" page="1" gridSize="10" guides="1" tooltips="1" connect="1" arrows="1" fold="1" pageScale="1" pageWidth="850" pageHeight="1100" math="0" shadow="0">
      <root>
        <mxCell id="0" />
        <mxCell id="1" parent="0" />
        <mxCell id="1ZjhrF0qXx_ZQsamiQKB-1" value="" style="ellipse;whiteSpace=wrap;html=1;" vertex="1" parent="1">
          <mxGeometry x="360" y="900" width="120" height="80" as="geometry" />
        </mxCell>
        <mxCell id="1ZjhrF0qXx_ZQsamiQKB-2" value="start" style="ellipse;whiteSpace=wrap;html=1;" vertex="1" parent="1">
          <mxGeometry x="370" y="90" width="120" height="80" as="geometry" />
        </mxCell>
        <mxCell id="1ZjhrF0qXx_ZQsamiQKB-3" value="n" style="shape=parallelogram;perimeter=parallelogramPerimeter;whiteSpace=wrap;html=1;fixedSize=1;" vertex="1" parent="1">
          <mxGeometry x="365" y="200" width="120" height="60" as="geometry" />
        </mxCell>
        <mxCell id="1ZjhrF0qXx_ZQsamiQKB-4" value="" style="endArrow=classic;html=1;rounded=0;exitX=0;exitY=0.5;exitDx=0;exitDy=0;" edge="1" parent="1">
          <mxGeometry width="50" height="50" relative="1" as="geometry">
            <mxPoint x="375" y="320" as="sourcePoint" />
            <mxPoint x="220" y="320" as="targetPoint" />
            <Array as="points" />
          </mxGeometry>
        </mxCell>
        <mxCell id="1ZjhrF0qXx_ZQsamiQKB-5" value="&amp;lt;2" style="rhombus;whiteSpace=wrap;html=1;" vertex="1" parent="1">
          <mxGeometry x="380" y="280" width="80" height="80" as="geometry" />
        </mxCell>
        <mxCell id="1ZjhrF0qXx_ZQsamiQKB-6" value="k phai so ngt" style="shape=parallelogram;perimeter=parallelogramPerimeter;whiteSpace=wrap;html=1;fixedSize=1;" vertex="1" parent="1">
          <mxGeometry x="80" y="290" width="120" height="60" as="geometry" />
        </mxCell>
        <mxCell id="1ZjhrF0qXx_ZQsamiQKB-7" value="true" style="text;html=1;align=center;verticalAlign=middle;whiteSpace=wrap;rounded=0;" vertex="1" parent="1">
          <mxGeometry x="270" y="280" width="60" height="30" as="geometry" />
        </mxCell>
        <mxCell id="1ZjhrF0qXx_ZQsamiQKB-8" value="false" style="text;html=1;align=center;verticalAlign=middle;whiteSpace=wrap;rounded=0;" vertex="1" parent="1">
          <mxGeometry x="420" y="390" width="60" height="30" as="geometry" />
        </mxCell>
        <mxCell id="1ZjhrF0qXx_ZQsamiQKB-9" value="" style="endArrow=classic;html=1;rounded=0;" edge="1" parent="1">
          <mxGeometry width="50" height="50" relative="1" as="geometry">
            <mxPoint x="419.5" y="370" as="sourcePoint" />
            <mxPoint x="419.5" y="430" as="targetPoint" />
          </mxGeometry>
        </mxCell>
        <mxCell id="1ZjhrF0qXx_ZQsamiQKB-10" value="i&amp;lt;=sqrt(n)" style="rhombus;whiteSpace=wrap;html=1;" vertex="1" parent="1">
          <mxGeometry x="380" y="520" width="80" height="80" as="geometry" />
        </mxCell>
        <mxCell id="1ZjhrF0qXx_ZQsamiQKB-11" value="i=2" style="rounded=0;whiteSpace=wrap;html=1;" vertex="1" parent="1">
          <mxGeometry x="360" y="440" width="120" height="60" as="geometry" />
        </mxCell>
        <mxCell id="1ZjhrF0qXx_ZQsamiQKB-12" value="" style="endArrow=classic;html=1;rounded=0;entryX=0.5;entryY=0;entryDx=0;entryDy=0;exitX=0.5;exitY=1;exitDx=0;exitDy=0;" edge="1" parent="1" source="1ZjhrF0qXx_ZQsamiQKB-11" target="1ZjhrF0qXx_ZQsamiQKB-10">
          <mxGeometry width="50" height="50" relative="1" as="geometry">
            <mxPoint x="400" y="520" as="sourcePoint" />
            <mxPoint x="450" y="470" as="targetPoint" />
          </mxGeometry>
        </mxCell>
        <mxCell id="1ZjhrF0qXx_ZQsamiQKB-13" value="" style="endArrow=classic;html=1;rounded=0;" edge="1" parent="1">
          <mxGeometry width="50" height="50" relative="1" as="geometry">
            <mxPoint x="420" y="260" as="sourcePoint" />
            <mxPoint x="430" y="290" as="targetPoint" />
          </mxGeometry>
        </mxCell>
        <mxCell id="1ZjhrF0qXx_ZQsamiQKB-14" value="n%i==0" style="rhombus;whiteSpace=wrap;html=1;" vertex="1" parent="1">
          <mxGeometry x="385" y="660" width="80" height="80" as="geometry" />
        </mxCell>
        <mxCell id="1ZjhrF0qXx_ZQsamiQKB-15" value="" style="endArrow=classic;html=1;rounded=0;exitX=1;exitY=0.5;exitDx=0;exitDy=0;" edge="1" parent="1" source="1ZjhrF0qXx_ZQsamiQKB-22" target="1ZjhrF0qXx_ZQsamiQKB-18">
          <mxGeometry width="50" height="50" relative="1" as="geometry">
            <mxPoint x="490" y="700" as="sourcePoint" />
            <mxPoint x="510" y="660" as="targetPoint" />
          </mxGeometry>
        </mxCell>
        <mxCell id="1ZjhrF0qXx_ZQsamiQKB-16" value="false" style="text;html=1;align=center;verticalAlign=middle;whiteSpace=wrap;rounded=0;" vertex="1" parent="1">
          <mxGeometry x="465" y="750" width="60" height="30" as="geometry" />
        </mxCell>
        <mxCell id="1ZjhrF0qXx_ZQsamiQKB-18" value="k phai so ngt" style="shape=parallelogram;perimeter=parallelogramPerimeter;whiteSpace=wrap;html=1;fixedSize=1;" vertex="1" parent="1">
          <mxGeometry x="510" y="760" width="120" height="60" as="geometry" />
        </mxCell>
        <mxCell id="1ZjhrF0qXx_ZQsamiQKB-19" value="máº£k=1" style="rounded=0;whiteSpace=wrap;html=1;" vertex="1" parent="1">
          <mxGeometry x="380" y="610" width="90" height="30" as="geometry" />
        </mxCell>
        <mxCell id="1ZjhrF0qXx_ZQsamiQKB-20" value="" style="endArrow=classic;html=1;rounded=0;exitX=0;exitY=0.5;exitDx=0;exitDy=0;" edge="1" parent="1" source="1ZjhrF0qXx_ZQsamiQKB-22" target="1ZjhrF0qXx_ZQsamiQKB-21">
          <mxGeometry width="50" height="50" relative="1" as="geometry">
            <mxPoint x="380" y="810" as="sourcePoint" />
            <mxPoint x="340" y="700" as="targetPoint" />
          </mxGeometry>
        </mxCell>
        <mxCell id="1ZjhrF0qXx_ZQsamiQKB-21" value="lla so ngt" style="shape=parallelogram;perimeter=parallelogramPerimeter;whiteSpace=wrap;html=1;fixedSize=1;" vertex="1" parent="1">
          <mxGeometry x="240" y="760" width="120" height="60" as="geometry" />
        </mxCell>
        <mxCell id="1ZjhrF0qXx_ZQsamiQKB-22" value="mark=1" style="rhombus;whiteSpace=wrap;html=1;" vertex="1" parent="1">
          <mxGeometry x="390" y="760" width="80" height="80" as="geometry" />
        </mxCell>
        <mxCell id="1ZjhrF0qXx_ZQsamiQKB-24" value="" style="endArrow=classic;html=1;rounded=0;entryX=0.5;entryY=0;entryDx=0;entryDy=0;exitX=0.5;exitY=1;exitDx=0;exitDy=0;" edge="1" parent="1" source="1ZjhrF0qXx_ZQsamiQKB-14" target="1ZjhrF0qXx_ZQsamiQKB-22">
          <mxGeometry width="50" height="50" relative="1" as="geometry">
            <mxPoint x="360" y="740" as="sourcePoint" />
            <mxPoint x="450" y="670" as="targetPoint" />
          </mxGeometry>
        </mxCell>
        <mxCell id="1ZjhrF0qXx_ZQsamiQKB-26" value="" style="endArrow=classic;html=1;rounded=0;exitX=1;exitY=0.5;exitDx=0;exitDy=0;entryX=0.627;entryY=0.02;entryDx=0;entryDy=0;entryPerimeter=0;" edge="1" parent="1" source="1ZjhrF0qXx_ZQsamiQKB-14" target="1ZjhrF0qXx_ZQsamiQKB-18">
          <mxGeometry width="50" height="50" relative="1" as="geometry">
            <mxPoint x="570" y="710" as="sourcePoint" />
            <mxPoint x="520" y="660" as="targetPoint" />
            <Array as="points">
              <mxPoint x="580" y="700" />
            </Array>
          </mxGeometry>
        </mxCell>
        <mxCell id="1ZjhrF0qXx_ZQsamiQKB-27" value="" style="endArrow=classic;html=1;rounded=0;entryX=0.5;entryY=0;entryDx=0;entryDy=0;" edge="1" parent="1" target="1ZjhrF0qXx_ZQsamiQKB-14">
          <mxGeometry width="50" height="50" relative="1" as="geometry">
            <mxPoint x="420" y="650" as="sourcePoint" />
            <mxPoint x="450" y="670" as="targetPoint" />
            <Array as="points">
              <mxPoint x="420" y="610" />
            </Array>
          </mxGeometry>
        </mxCell>
        <mxCell id="1ZjhrF0qXx_ZQsamiQKB-28" value="" style="endArrow=classic;html=1;rounded=0;entryX=0.563;entryY=0.02;entryDx=0;entryDy=0;entryPerimeter=0;exitX=0.5;exitY=1;exitDx=0;exitDy=0;" edge="1" parent="1" source="1ZjhrF0qXx_ZQsamiQKB-22" target="1ZjhrF0qXx_ZQsamiQKB-1">
          <mxGeometry width="50" height="50" relative="1" as="geometry">
            <mxPoint x="400" y="720" as="sourcePoint" />
            <mxPoint x="450" y="670" as="targetPoint" />
          </mxGeometry>
        </mxCell>
      </root>
    </mxGraphModel>
  </diagram>
</mxfile>
